<svg xmlns="http://www.w3.org/2000/svg" width="256" height="256" viewBox="0 0 100 100"><rect width="100" height="100" rx="50" fill="#15af9d"></rect><path fill="#fff" d="M26.26 72.60Q24.30 72.60 23.45 71.73Q22.60 70.86 22.60 68.42L22.60 68.42Q22.60 66.77 22.94 64.20Q23.29 61.63 24.08 57.13L24.08 57.13Q25.46 48.81 26.26 42.71L26.26 42.71Q26.73 38.90 26.73 36.35L26.73 36.35Q26.73 33.97 24.98 33.97L24.98 33.97Q23.61 33.97 21.67 35.37Q19.74 36.78 17.41 39.85L17.41 39.85Q16.66 40.86 15.76 40.86L15.76 40.86Q15.02 40.86 14.46 40.14Q13.91 39.43 13.91 38.53L13.91 38.53Q13.91 37.68 14.25 36.80Q14.60 35.93 15.39 34.82L15.39 34.82Q17.94 31.26 21.06 29.33Q24.19 27.40 27.32 27.40L27.32 27.40Q30.23 27.40 31.79 29.25Q33.36 31.11 33.36 34.66L33.36 34.66Q33.36 36.09 33.09 38.02Q32.83 39.96 32.62 41.18Q32.40 42.39 32.30 42.87L32.30 42.87Q35.32 34.23 39.08 30.81Q42.84 27.40 47.35 27.40L47.35 27.40Q50.80 27.40 52.78 29.83Q54.77 32.27 54.77 36.72L54.77 36.72Q54.77 38.47 54.29 41.07L54.29 41.07Q56.94 33.76 60.49 30.58Q64.05 27.40 68.66 27.40L68.66 27.40Q72.37 27.40 74.35 29.78Q76.34 32.17 76.34 36.46L76.34 36.46Q76.34 38.79 75.65 42.13L75.65 42.13L72.42 57.29Q71.89 59.94 71.89 61.85L71.89 61.85Q71.89 64.07 72.92 65.18Q73.96 66.30 75.81 66.30L75.81 66.30Q77.56 66.30 79.23 65.13Q80.90 63.97 83.18 61.26L83.18 61.26Q83.81 60.52 84.61 60.52L84.61 60.52Q85.30 60.52 85.70 61.16Q86.09 61.79 86.09 62.91L86.09 62.91Q86.09 64.97 85.09 66.19L85.09 66.19Q82.33 69.53 79.63 71.07Q76.92 72.60 73.96 72.60L73.96 72.60Q69.45 72.60 66.91 69.93Q64.36 67.25 64.36 62.75L64.36 62.75Q64.36 59.62 65.64 53.68L65.64 53.68L67.76 43.98Q67.86 43.51 68.13 42.29Q68.39 41.07 68.55 39.98Q68.71 38.90 68.71 37.84L68.71 37.84Q68.71 35.98 67.99 35.05Q67.28 34.13 65.95 34.13L65.95 34.13Q63.46 34.13 60.73 37.33Q58.00 40.54 55.54 47.96Q53.07 55.38 51.54 67.25L51.54 67.25Q51.17 70.43 50.24 71.52Q49.31 72.60 47.24 72.60L47.24 72.60Q45.44 72.60 44.62 71.76Q43.80 70.91 43.80 68.58L43.80 68.58Q43.80 66.40 44.38 62.88Q44.97 59.35 45.87 54.58L45.87 54.58Q48.30 41.76 48.30 38.05L48.30 38.05Q48.30 36.03 47.54 35.08Q46.77 34.13 45.23 34.13L45.23 34.13Q42.63 34.13 39.88 37.07Q37.12 40.01 34.50 47.51Q31.87 55.01 30.13 67.78L30.13 67.78Q29.75 70.48 29.04 71.54Q28.32 72.60 26.26 72.60L26.26 72.60Z"></path></svg>