<?xml version="1.0" encoding="UTF-8"?>
<svg xmlns="http://www.w3.org/2000/svg" xmlns:xlink="http://www.w3.org/1999/xlink" width="54px" height="54px" viewBox="0 0 54 54" version="1.1">
<g id="surface1">
<path style=" stroke:none;fill-rule:nonzero;fill:rgb(44.313725%,54.509804%,91.372549%);fill-opacity:1;" d="M 33.433594 10.351562 C 32.925781 11.664062 32.289062 12.933594 31.71875 14.21875 C 30.710938 16.5 29.71875 18.789062 28.695312 21.058594 C 28.222656 22.105469 27.753906 23.15625 27.296875 24.210938 C 27.136719 24.582031 26.789062 25.0625 26.769531 25.46875 C 26.75 25.8125 27.074219 26.289062 27.214844 26.59375 C 27.59375 27.429688 27.964844 28.273438 28.332031 29.113281 C 28.75 30.078125 29.195312 31.03125 29.609375 31.996094 C 29.730469 32.273438 29.898438 32.949219 30.167969 33.101562 C 30.417969 33.242188 30.945312 33.140625 31.230469 33.140625 L 40.183594 33.140625 C 41.316406 33.140625 42.480469 33.222656 43.605469 33.121094 L 40.875 26.953125 L 35.769531 15.433594 L 33.523438 10.351562 L 33.433594 10.351562 M 20.296875 11.070312 C 19.925781 11.703125 19.683594 12.425781 19.382812 13.09375 C 18.734375 14.53125 18.097656 15.972656 17.464844 17.414062 C 15.988281 20.78125 14.453125 24.125 12.984375 27.496094 C 12.402344 28.832031 11.832031 30.179688 11.214844 31.5 C 11.019531 31.917969 10.488281 32.707031 10.574219 33.164062 C 11.570312 33.019531 12.671875 33.140625 13.679688 33.140625 L 22.230469 33.140625 C 22.511719 33.140625 23.003906 33.238281 23.253906 33.105469 C 23.542969 32.957031 23.6875 32.320312 23.816406 32.039062 C 24.269531 31.039062 24.703125 30.03125 25.148438 29.023438 C 25.507812 28.214844 25.847656 27.394531 26.226562 26.59375 C 26.371094 26.289062 26.691406 25.816406 26.671875 25.46875 C 26.644531 25.007812 26.242188 24.402344 26.046875 23.984375 C 25.613281 23.066406 25.226562 22.121094 24.808594 21.195312 C 23.785156 18.921875 22.78125 16.636719 21.773438 14.355469 C 21.308594 13.300781 20.9375 12.027344 20.296875 11.070312 Z M 20.296875 11.070312 "/>
</g>
</svg>
