<?xml version="1.0" standalone="yes"?>
<svg xmlns="http://www.w3.org/2000/svg" width="1200" height="1200">
<path style="fill:#718be9; stroke:none;" d="M743 230C731.684 259.167 717.509 287.391 704.86 316C682.464 366.655 660.455 417.505 637.694 468C627.204 491.274 616.759 514.59 606.576 538C602.998 546.224 595.344 556.967 594.858 566C594.45 573.575 601.666 584.197 604.769 591C613.237 609.562 621.437 628.291 629.576 647C638.887 668.406 648.748 689.568 658 711C660.661 717.163 664.371 732.235 670.39 735.607C675.998 738.747 687.681 736.5 694 736.5L752 736.5L893 736.5C918.113 736.5 943.991 738.277 969 736L908.306 599L794.908 343L745 230L743 230M451 246C442.799 260.053 437.384 276.16 430.694 291C416.309 322.911 402.196 354.95 388.139 387C355.319 461.829 321.168 536.074 288.576 611C275.65 640.714 262.977 670.656 249.22 700C244.861 709.298 233.038 726.84 235 737C257.149 733.744 281.601 736.5 304 736.5L440 736.5L494 736.5C500.245 736.5 511.16 738.597 516.787 735.687C523.146 732.398 526.397 718.211 529.231 712C539.365 689.785 548.987 667.331 558.86 645C566.814 627.011 574.433 608.805 582.78 591C585.988 584.158 593.103 573.712 592.682 566C592.121 555.723 583.126 542.277 578.78 533C569.201 512.552 560.591 491.598 551.306 471C528.523 420.463 506.276 369.7 483.86 319C473.487 295.539 465.31 267.273 451 246z"/>
</svg>
